Needle (2010) 1080P 


Australië
Horror / Mystery
90 minuten

geregisseerd door John V. Soto
met Jane Badler, Tahyna Tozzi en Michael Dorman

Ben Rutherford (Michael Dorman) is een jonge student die een kleine mysterieuze machine, genaamd \"La Vaudou Mort\", van z\'n vader erft. Hij laat het toestelletje zien aan een groep geïnteresseerde studenten. Op een dag keert hij terug naar huis en komt hij erachter dat zijn machine is gestolen. De volgende dag verneemt hij van zijn broer Marcus het verhaal dat één van zijn vrienden, Ryan een afschuwelijke dood is gestorven. Op mysterieuze blijkt hij te zijn omgebracht...
 
http://www.moviemeter.nl/film/65007

English

Storyline
In the Saint Mary's College, the student Ben Rutherford inherits a strange device from his deceased father. However, the device is stolen and out of the blue his friends are murdered, one by one, in a bizarre way. Ben and is brother Marcus have been estranged for years, but they get close again and discover that the machine is a tool built for revenge by Rubenstein in the Eighteenth Century. Further they also find that their father had killed his partner Robert Shawn ten years ago and now someone is seeking revenge for the sins of their father. 
 
http://www.imdb.com/title/tt1545315/

Info:


---Compressie: x264 MKV
---Audio: Engels 5.1 DTS & 5.1 DD
---Subs: Nederlands, english
---Bewerking: Bradje


  Category : Video 
  Format : x264HD 
  Source : Retail 
  Subtitle : English subs optional  
  Genre : Horror Mystery  
  Language : English audio  
 
  Weblink :  http://www.moviemeter.nl/film/65007
  Weblink :  http://www.imdb.com/title/tt1545315/

TBS 

MEDIA INFO

General
Complete name                    : Needle_(2010)_1080P_NL_subzz\Needle.(2010).1080P.X264.NL.SUBBED.Bradje\Needle.(2010).1080P.X264.NL.SUBBED.Bradje.mkv
Format                           : Matroska
File size                        : 3.86 GiB
Duration                         : 1h 25mn
Overall bit rate                 : 6 470 Kbps
Movie name                       : Needle.(2010).1080P.X264.NL.SUBBED.Bradje
Encoded date                     : UTC 2011-04-12 10:33:06
Writing application              : mkvmerge v3.3.0 ('Language') built on Mar 24 2010 14:59:24
Writing library                  : libebml v0.8.0 + libmatroska v0.9.0

Video
ID                               : 1
Format                           : AVC
Format/Info                      : Advanced Video Codec
Format profile                   : High@L4.1
Format settings, CABAC           : Yes
Format settings, ReFrames        : 5 frames
Muxing mode                      : Container profile=Unknown@4.1
Codec ID                         : V_MPEG4/ISO/AVC
Duration                         : 1h 25mn
Bit rate                         : 4 191 Kbps
Width                            : 1 920 pixels
Height                           : 800 pixels
Display aspect ratio             : 2.40:1
Frame rate                       : 25.000 fps
Color space                      : YUV
Chroma subsampling               : 4:2:0
Bit depth                        : 8 bits
Scan type                        : Progressive
Bits/(Pixel*Frame)               : 0.109
Stream size                      : 2.50 GiB (65%)
Title                            : Needle.(2010).1080P.X264.NL.SUBBED.Bradje
Writing library                  : x264 core 114 r1913 5fd3dce
Encoding settings                : cabac=1 / ref=5 / deblock=1:0:0 / analyse=0x3:0x133 / me=umh / subme=7 / psy=1 / psy_rd=1.00:0.00 / mixed_ref=1 / me_range=16 / chroma_me=1 / trellis=1 / 8x8dct=1 / cqm=0 / deadzone=21,11 / fast_pskip=0 / chroma_qp_offset=-2 / threads=9 / sliced_threads=0 / nr=0 / decimate=1 / interlaced=0 / constrained_intra=0 / bframes=3 / b_pyramid=2 / b_adapt=1 / b_bias=0 / direct=1 / weightb=1 / open_gop=0 / weightp=2 / keyint=250 / keyint_min=25 / scenecut=40 / intra_refresh=0 / rc_lookahead=40 / rc=crf / mbtree=1 / crf=20.0 / qcomp=0.60 / qpmin=0 / qpmax=69 / qpstep=4 / ip_ratio=1.40 / aq=1:1.00
Language                         : English

Audio #1
ID                               : 2
Format                           : DTS
Format/Info                      : Digital Theater Systems
Codec ID                         : A_DTS
Duration                         : 1h 25mn
Bit rate mode                    : Constant
Bit rate                         : 1 510 Kbps
Channel(s)                       : 6 channels
Channel positions                : Front: L C R, Side: L R, LFE
Sampling rate                    : 48.0 KHz
Bit depth                        : 16 bits
Stream size                      : 923 MiB (23%)
Title                            : DTS
Language                         : English

Audio #2
ID                               : 3
Format                           : AC-3
Format/Info                      : Audio Coding 3
Mode extension                   : CM (complete main)
Codec ID                         : A_AC3
Duration                         : 1h 25mn
Bit rate mode                    : Constant
Bit rate                         : 640 Kbps
Channel(s)                       : 6 channels
Channel positions                : Front: L C R, Side: L R, LFE
Sampling rate                    : 48.0 KHz
Bit depth                        : 16 bits
Stream size                      : 391 MiB (10%)
Title                            : AC3
Language                         : English

Text #1
ID                               : 4
Format                           : UTF-8
Codec ID                         : S_TEXT/UTF8
Codec ID/Info                    : UTF-8 Plain Text
Title                            : Subtitles
Language                         : Dutch

Text #2
ID                               : 5
Format                           : UTF-8
Codec ID                         : S_TEXT/UTF8
Codec ID/Info                    : UTF-8 Plain Text
Title                            : Subtitles
Language                         : English

